<svg id="visual" viewBox="0 0 900 600" width="900" height="600" xmlns="http://www.w3.org/2000/svg" xmlns:xlink="http://www.w3.org/1999/xlink" version="1.1"><path d="M0 139L180 115L360 121L540 181L720 139L900 115L900 0L720 0L540 0L360 0L180 0L0 0Z" fill="#ffffff"></path><path d="M0 205L180 193L360 241L540 289L720 199L900 229L900 113L720 137L540 179L360 119L180 113L0 137Z" fill="#c1dbfd"></path><path d="M0 265L180 235L360 289L540 337L720 253L900 295L900 227L720 197L540 287L360 239L180 191L0 203Z" fill="#78b9f9"></path><path d="M0 301L180 265L360 325L540 373L720 301L900 337L900 293L720 251L540 335L360 287L180 233L0 263Z" fill="#4facf7"></path><path d="M0 373L180 331L360 367L540 421L720 367L900 403L900 335L720 299L540 371L360 323L180 263L0 299Z" fill="#78b9f9"></path><path d="M0 445L180 421L360 439L540 499L720 427L900 457L900 401L720 365L540 419L360 365L180 329L0 371Z" fill="#c1dbfd"></path><path d="M0 601L180 601L360 601L540 601L720 601L900 601L900 455L720 425L540 497L360 437L180 419L0 443Z" fill="#ffffff"></path></svg>